<svg width="21" height="21" viewBox="0 0 21 21" fill="none" xmlns="http://www.w3.org/2000/svg">
<path d="M19.8729 18.0466H17.9831V19.9364C17.9831 20.3178 17.7288 20.5635 17.3559 20.5635C16.9746 20.5635 16.7288 20.3093 16.7288 19.9364V18.0466H14.839C14.4576 18.0466 14.2119 17.7923 14.2119 17.4195C14.2119 17.0381 14.4661 16.7923 14.839 16.7923H16.7288V14.9025C16.7288 14.5211 16.9831 14.2754 17.3559 14.2754C17.7373 14.2754 17.9831 14.5296 17.9831 14.9025V16.7923H19.8729C20.2542 16.7923 20.5 17.0466 20.5 17.4195C20.5 17.7923 20.2458 18.0466 19.8729 18.0466ZM12.9492 11.75H11.9407C11.0593 12.5042 9.80509 13.0042 8.54237 13.0042C7.28814 13.0042 6.15254 12.5042 5.14407 11.75H4.27966C2.89831 11.75 1.76271 12.8856 1.76271 14.2669V16.7839C1.76271 18.1652 2.89831 19.3008 4.27966 19.3008H12.9576V20.555H4.27119C2.13559 20.555 0.5 18.9195 0.5 16.7839V14.2669C0.5 12.2584 2.13559 10.4957 4.14407 10.4957C3.51695 9.48725 3.00847 8.10589 3.00847 6.72454C3.00847 3.19911 5.52542 0.436401 8.66949 0.436401C11.8136 0.436401 14.3305 3.20759 14.3305 6.72454C14.3305 8.10589 13.8305 9.49572 13.1949 10.4957C14.7034 10.6228 16.0847 11.6313 16.5932 13.0127H15.2119C14.7119 12.2584 13.9576 11.75 12.9492 11.75ZM8.67797 1.69064C6.28814 1.69064 4.27966 3.95335 4.27966 6.72454C4.27966 9.49572 6.28814 11.7584 8.67797 11.7584C11.0678 11.7584 13.0763 9.49572 13.0763 6.72454C13.0763 3.95335 11.0678 1.69064 8.67797 1.69064Z" fill="black"/>
</svg>
